# xmcd
#
# Track frame offsets: 
#        150
#        16036
#        29571
#        44534
#        58297
#        77136
#        91960
#        107924
#        120494
#        139704
#        155582
#        169818
#
# Disc length: 2470 seconds
#
# Revision: 0
# Processed by: cddbd v1.5.2PL0 Copyright (c) Steve Scherf et al.
# Submitted via: ExactAudioCopy v0.99pb5
#
DISCID=9d09a40c
DTITLE=Phil Kitze - Favorite Songs of the Past
DYEAR=2001
DGENRE=Blues
TTITLE0=For Me And My Gal
TTITLE1=Darktown Strutters' Ball
TTITLE2=Blue Skirt Waltz
TTITLE3=My Blue Heaven
TTITLE4=Are You My Sunshine
TTITLE5=When I Grow Too Old To Dream
TTITLE6=Bye Bye Blackbird
TTITLE7=When You Wore A Tulip
TTITLE8=Let The Rest Of The World Go By
TTITLE9=Red Wing
TTITLE10=Side By Side
TTITLE11=Till We Meet Again
EXTD=
EXTT0=
EXTT1=
EXTT2=
EXTT3=
EXTT4=
EXTT5=
EXTT6=
EXTT7=
EXTT8=
EXTT9=
EXTT10=
EXTT11=
PLAYORDER=
